<mxfile host="app.diagrams.net" modified="2021-01-12T10:49:02.515Z" agent="5.0 (Macintosh; Intel Mac OS X 10_15_7) AppleWebKit/537.36 (KHTML, like Gecko) Chrome/87.0.4280.141 Safari/537.36" etag="zuoDhx0N01GW3Qoz_Klf" version="14.1.9" type="github">
  <diagram id="CJAuQIOr1ehYsyy2dsB5" name="Page-1">
    <mxGraphModel dx="797" dy="814" grid="1" gridSize="10" guides="1" tooltips="1" connect="1" arrows="1" fold="1" page="1" pageScale="1" pageWidth="850" pageHeight="1100" math="0" shadow="0">
      <root>
        <mxCell id="0" />
        <mxCell id="1" parent="0" />
        <mxCell id="sDBylw1gnawTHgjcesv9-18" value="" style="group" vertex="1" connectable="0" parent="1">
          <mxGeometry x="90" y="120" width="110" height="102" as="geometry" />
        </mxCell>
        <mxCell id="sDBylw1gnawTHgjcesv9-15" value="" style="group" vertex="1" connectable="0" parent="sDBylw1gnawTHgjcesv9-18">
          <mxGeometry y="22" width="110" height="80" as="geometry" />
        </mxCell>
        <mxCell id="sDBylw1gnawTHgjcesv9-1" value="" style="shape=document;whiteSpace=wrap;html=1;boundedLbl=1;container=0;" vertex="1" parent="sDBylw1gnawTHgjcesv9-15">
          <mxGeometry width="110" height="80" as="geometry" />
        </mxCell>
        <mxCell id="sDBylw1gnawTHgjcesv9-8" value="" style="group" vertex="1" connectable="0" parent="sDBylw1gnawTHgjcesv9-15">
          <mxGeometry x="15" y="10" width="35" height="40" as="geometry" />
        </mxCell>
        <mxCell id="sDBylw1gnawTHgjcesv9-2" value="" style="endArrow=none;html=1;" edge="1" parent="sDBylw1gnawTHgjcesv9-8">
          <mxGeometry x="-15" y="-10" width="50" height="50" as="geometry">
            <mxPoint y="10" as="sourcePoint" />
            <mxPoint x="35" y="10" as="targetPoint" />
          </mxGeometry>
        </mxCell>
        <mxCell id="sDBylw1gnawTHgjcesv9-3" value="" style="endArrow=none;html=1;" edge="1" parent="sDBylw1gnawTHgjcesv9-8">
          <mxGeometry x="-15" y="-10" width="50" height="50" as="geometry">
            <mxPoint y="20" as="sourcePoint" />
            <mxPoint x="35" y="20" as="targetPoint" />
          </mxGeometry>
        </mxCell>
        <mxCell id="sDBylw1gnawTHgjcesv9-4" value="" style="endArrow=none;html=1;" edge="1" parent="sDBylw1gnawTHgjcesv9-8">
          <mxGeometry x="-15" y="-10" width="50" height="50" as="geometry">
            <mxPoint y="29.5" as="sourcePoint" />
            <mxPoint x="35" y="30" as="targetPoint" />
          </mxGeometry>
        </mxCell>
        <mxCell id="sDBylw1gnawTHgjcesv9-5" value="" style="endArrow=none;html=1;" edge="1" parent="sDBylw1gnawTHgjcesv9-8">
          <mxGeometry x="-15" y="-10" width="50" height="50" as="geometry">
            <mxPoint y="39.5" as="sourcePoint" />
            <mxPoint x="35" y="40" as="targetPoint" />
          </mxGeometry>
        </mxCell>
        <mxCell id="sDBylw1gnawTHgjcesv9-6" value="" style="endArrow=none;html=1;" edge="1" parent="sDBylw1gnawTHgjcesv9-8">
          <mxGeometry x="-15" y="-10" width="50" height="50" as="geometry">
            <mxPoint as="sourcePoint" />
            <mxPoint x="35" as="targetPoint" />
          </mxGeometry>
        </mxCell>
        <mxCell id="sDBylw1gnawTHgjcesv9-9" value="" style="group" vertex="1" connectable="0" parent="sDBylw1gnawTHgjcesv9-15">
          <mxGeometry x="60" y="10" width="35" height="40" as="geometry" />
        </mxCell>
        <mxCell id="sDBylw1gnawTHgjcesv9-10" value="" style="endArrow=none;html=1;" edge="1" parent="sDBylw1gnawTHgjcesv9-9">
          <mxGeometry x="-15" y="-10" width="50" height="50" as="geometry">
            <mxPoint y="10" as="sourcePoint" />
            <mxPoint x="35" y="10" as="targetPoint" />
          </mxGeometry>
        </mxCell>
        <mxCell id="sDBylw1gnawTHgjcesv9-11" value="" style="endArrow=none;html=1;" edge="1" parent="sDBylw1gnawTHgjcesv9-9">
          <mxGeometry x="-15" y="-10" width="50" height="50" as="geometry">
            <mxPoint y="20" as="sourcePoint" />
            <mxPoint x="35" y="20" as="targetPoint" />
          </mxGeometry>
        </mxCell>
        <mxCell id="sDBylw1gnawTHgjcesv9-12" value="" style="endArrow=none;html=1;" edge="1" parent="sDBylw1gnawTHgjcesv9-9">
          <mxGeometry x="-15" y="-10" width="50" height="50" as="geometry">
            <mxPoint y="29.5" as="sourcePoint" />
            <mxPoint x="35" y="30" as="targetPoint" />
          </mxGeometry>
        </mxCell>
        <mxCell id="sDBylw1gnawTHgjcesv9-13" value="" style="endArrow=none;html=1;" edge="1" parent="sDBylw1gnawTHgjcesv9-9">
          <mxGeometry x="-15" y="-10" width="50" height="50" as="geometry">
            <mxPoint y="39.5" as="sourcePoint" />
            <mxPoint x="35" y="40" as="targetPoint" />
          </mxGeometry>
        </mxCell>
        <mxCell id="sDBylw1gnawTHgjcesv9-14" value="" style="endArrow=none;html=1;" edge="1" parent="sDBylw1gnawTHgjcesv9-9">
          <mxGeometry x="-15" y="-10" width="50" height="50" as="geometry">
            <mxPoint as="sourcePoint" />
            <mxPoint x="35" as="targetPoint" />
          </mxGeometry>
        </mxCell>
        <mxCell id="sDBylw1gnawTHgjcesv9-16" value="&lt;font face=&quot;Cousine&quot; data-font-src=&quot;https://fonts.googleapis.com/css?family=Cousine&quot;&gt;data-01.csv&lt;/font&gt;" style="text;html=1;align=left;verticalAlign=middle;resizable=0;points=[];autosize=1;fontFamily=Verdana;" vertex="1" parent="sDBylw1gnawTHgjcesv9-18">
          <mxGeometry x="10" width="90" height="20" as="geometry" />
        </mxCell>
        <mxCell id="sDBylw1gnawTHgjcesv9-23" value="" style="group" vertex="1" connectable="0" parent="1">
          <mxGeometry x="400" y="80" width="300" height="280" as="geometry" />
        </mxCell>
        <mxCell id="sDBylw1gnawTHgjcesv9-19" value="&lt;font face=&quot;Cousine&quot; data-font-src=&quot;https://fonts.googleapis.com/css?family=Cousine&quot;&gt;&lt;br&gt;&lt;/font&gt;" style="shape=note;whiteSpace=wrap;html=1;backgroundOutline=1;darkOpacity=0.05;fontFamily=Verdana;align=left;" vertex="1" parent="sDBylw1gnawTHgjcesv9-23">
          <mxGeometry width="290" height="280" as="geometry" />
        </mxCell>
        <mxCell id="sDBylw1gnawTHgjcesv9-21" value="&lt;span style=&quot;font-family: &amp;#34;cousine&amp;#34;&quot;&gt;{&lt;/span&gt;&lt;br style=&quot;font-family: &amp;#34;cousine&amp;#34;&quot;&gt;&lt;span style=&quot;font-family: &amp;#34;cousine&amp;#34;&quot;&gt;&amp;nbsp; @id: gid.01&lt;/span&gt;&lt;br style=&quot;font-family: &amp;#34;cousine&amp;#34;&quot;&gt;&lt;span style=&quot;font-family: &amp;#34;cousine&amp;#34;&quot;&gt;&amp;nbsp; @type: Dataset&lt;/span&gt;&lt;br style=&quot;font-family: &amp;#34;cousine&amp;#34;&quot;&gt;&lt;span style=&quot;font-family: &amp;#34;cousine&amp;#34;&quot;&gt;&amp;nbsp; identifier: doi:10.9999/01&lt;/span&gt;&lt;br style=&quot;font-family: &amp;#34;cousine&amp;#34;&quot;&gt;&lt;span style=&quot;font-family: &amp;#34;cousine&amp;#34;&quot;&gt;&amp;nbsp; url: https://ex.net/data/data-01.csv&lt;/span&gt;&lt;br style=&quot;font-family: &amp;#34;cousine&amp;#34;&quot;&gt;&lt;div&gt;&lt;span style=&quot;font-family: &amp;#34;cousine&amp;#34;&quot;&gt;}&lt;/span&gt;&lt;/div&gt;" style="text;html=1;align=left;verticalAlign=middle;resizable=0;points=[];autosize=1;fontFamily=Verdana;" vertex="1" parent="sDBylw1gnawTHgjcesv9-23">
          <mxGeometry x="10" y="20" width="290" height="100" as="geometry" />
        </mxCell>
        <mxCell id="sDBylw1gnawTHgjcesv9-22" value="&lt;h1&gt;Heading&lt;/h1&gt;&lt;p&gt;Lorem ipsum dolor sit amet, consectetur adipisicing elit, sed do eiusmod tempor incididunt ut labore et dolore magna aliqua.&lt;/p&gt;" style="text;html=1;strokeColor=none;fillColor=none;spacing=5;spacingTop=-20;whiteSpace=wrap;overflow=hidden;rounded=0;fontFamily=Verdana;" vertex="1" parent="sDBylw1gnawTHgjcesv9-23">
          <mxGeometry x="40" y="130" width="190" height="120" as="geometry" />
        </mxCell>
      </root>
    </mxGraphModel>
  </diagram>
</mxfile>
